<?xml version="1.0" encoding="utf-8" standalone="no"?>
<!DOCTYPE svg PUBLIC "-//W3C//DTD SVG 1.1//EN"
  "http://www.w3.org/Graphics/SVG/1.1/DTD/svg11.dtd">
<svg xmlns:xlink="http://www.w3.org/1999/xlink" width="360pt" height="360pt" viewBox="0 0 360 360" xmlns="http://www.w3.org/2000/svg" version="1.1">
 <metadata>
  <rdf:RDF xmlns:dc="http://purl.org/dc/elements/1.1/" xmlns:cc="http://creativecommons.org/ns#" xmlns:rdf="http://www.w3.org/1999/02/22-rdf-syntax-ns#">
   <cc:Work>
    <dc:type rdf:resource="http://purl.org/dc/dcmitype/StillImage"/>
    <dc:date>2023-05-14T21:16:19.754293</dc:date>
    <dc:format>image/svg+xml</dc:format>
    <dc:creator>
     <cc:Agent>
      <dc:title>Matplotlib v3.5.2, https://matplotlib.org/</dc:title>
     </cc:Agent>
    </dc:creator>
   </cc:Work>
  </rdf:RDF>
 </metadata>
 <defs>
  <style type="text/css">*{stroke-linejoin: round; stroke-linecap: butt}</style>
 </defs>
 <g id="figure_1">
  <g id="patch_1">
   <path d="M 0 360 
L 360 360 
L 360 0 
L 0 0 
L 0 360 
z
" style="fill: none"/>
  </g>
  <g id="axes_1">
   <g id="patch_2">
    <path d="M 52.896226 181.8 
L 184.5 313.403774 
L 316.103774 181.8 
L 184.5 50.196226 
L 52.896226 181.8 
z
" clip-path="url(#paff13f505d)" style="fill: none; stroke: #ffffff; stroke-width: 5; stroke-linejoin: miter"/>
   </g>
   <g id="line2d_1">
    <path d="M 54.213582 181.599314 
L 57.638705 180.928024 
L 62.117712 179.802611 
L 67.650603 178.434179 
L 70.285314 178.031003 
L 72.393082 177.936834 
L 74.237379 178.075674 
L 76.081676 178.462254 
L 77.662502 179.015647 
L 79.243328 179.789635 
L 80.824154 180.791595 
L 82.668451 182.246268 
L 84.512749 183.989022 
L 86.620517 186.279625 
L 89.782169 190.093645 
L 93.470763 194.500432 
L 95.31506 196.379071 
L 96.895886 197.66507 
L 98.213242 198.434103 
L 99.267126 198.811693 
L 100.32101 198.949085 
L 101.374894 198.821532 
L 102.428778 198.406825 
L 103.482662 197.685931 
L 104.536546 196.643623 
L 105.59043 195.26908 
L 106.644314 193.556459 
L 107.961669 190.940286 
L 109.279024 187.80823 
L 110.85985 183.409431 
L 112.704148 177.498698 
L 114.811916 169.948769 
L 121.925633 143.729471 
L 123.506459 139.151975 
L 124.823814 136.074349 
L 125.877698 134.191094 
L 126.668112 133.15823 
L 127.458525 132.478159 
L 127.985467 132.231899 
L 128.512409 132.158412 
L 129.039351 132.263156 
L 129.566293 132.551011 
L 130.356706 133.335274 
L 131.147119 134.552563 
L 131.937532 136.210912 
L 132.727945 138.314572 
L 133.781829 141.812042 
L 134.835713 146.09036 
L 136.153068 152.497893 
L 137.470423 160.008524 
L 139.051249 170.318142 
L 140.895546 183.806264 
L 143.793728 206.963006 
L 147.482322 236.412695 
L 149.326619 249.512608 
L 150.907445 259.15214 
L 152.2248 265.747258 
L 153.278684 269.926342 
L 154.069097 272.356632 
L 154.85951 274.143796 
L 155.386452 274.962738 
L 155.913395 275.474558 
L 156.440337 275.672683 
L 156.967279 275.55169 
L 157.494221 275.107353 
L 158.021163 274.33667 
L 158.548105 273.237896 
L 159.338518 270.973906 
L 160.128931 267.974898 
L 161.182815 262.852119 
L 162.236699 256.485769 
L 163.554054 246.879078 
L 164.871409 235.601292 
L 166.452235 220.169225 
L 168.560003 197.127455 
L 172.77554 147.488653 
L 175.146779 120.944935 
L 176.991076 102.649247 
L 178.571902 89.322961 
L 179.889257 80.235799 
L 180.943141 74.448464 
L 181.733554 71.033432 
L 182.523967 68.445566 
L 183.31438 66.707584 
L 183.841322 66.028939 
L 184.368264 65.737616 
L 184.895207 65.834755 
L 185.422149 66.319976 
L 185.949091 67.191382 
L 186.476033 68.445566 
L 187.266446 71.033432 
L 188.056859 74.448464 
L 189.110743 80.235799 
L 190.164627 87.349703 
L 191.481982 97.937918 
L 193.062808 112.789159 
L 194.907105 132.42116 
L 197.805286 166.163222 
L 201.493881 208.937993 
L 203.338178 228.120563 
L 204.919004 242.557388 
L 206.236359 252.855574 
L 207.553714 261.374954 
L 208.607598 266.813529 
L 209.661482 270.973906 
L 210.451895 273.237896 
L 211.242308 274.762944 
L 211.76925 275.370157 
L 212.296192 275.652369 
L 212.823134 275.613199 
L 213.350076 275.257476 
L 213.877019 274.591203 
L 214.403961 273.621514 
L 215.194374 271.616348 
L 215.984787 268.9793 
L 217.038671 264.544704 
L 218.092555 259.15214 
L 219.40991 251.234353 
L 220.990736 240.322085 
L 223.098504 224.103044 
L 229.421809 174.029574 
L 231.266106 161.633796 
L 232.846932 152.497893 
L 234.164287 146.09036 
L 235.481642 140.863819 
L 236.535526 137.563772 
L 237.58941 135.05605 
L 238.379823 133.69245 
L 239.170236 132.764963 
L 239.960649 132.263156 
L 240.487591 132.158412 
L 241.014533 132.231899 
L 241.541475 132.478159 
L 242.331888 133.15823 
L 243.122302 134.191094 
L 243.912715 135.552216 
L 244.966599 137.831763 
L 246.283954 141.333438 
L 247.86478 146.309433 
L 249.972548 153.854014 
L 256.822794 179.264127 
L 258.667092 184.949454 
L 260.247918 189.121522 
L 261.565273 192.049699 
L 262.882628 194.455186 
L 263.936512 195.998369 
L 264.990396 197.205741 
L 266.04428 198.0857 
L 267.098164 198.651344 
L 268.152048 198.919882 
L 269.205932 198.912013 
L 270.259816 198.651295 
L 271.3137 198.163505 
L 272.631056 197.276249 
L 274.211882 195.877918 
L 276.056179 193.908832 
L 278.95436 190.419662 
L 282.906425 185.681495 
L 285.277664 183.208983 
L 287.121962 181.585937 
L 288.966259 180.261983 
L 290.547085 179.374418 
L 292.127911 178.712138 
L 293.708737 178.263964 
L 295.553034 177.988006 
L 297.397331 177.943606 
L 299.505099 178.123536 
L 302.13981 178.599821 
L 306.091875 179.591037 
L 312.151708 181.100971 
L 314.786418 181.599314 
L 314.786418 181.599314 
" clip-path="url(#paff13f505d)" style="fill: none; stroke: #ffffff; stroke-width: 5; stroke-linecap: square"/>
   </g>
  </g>
 </g>
 <defs>
  <clipPath id="paff13f505d">
   <rect x="45" y="46.248113" width="279" height="271.103774"/>
  </clipPath>
 </defs>
</svg>
