<?xml version="1.0" standalone="no"?>
<!DOCTYPE svg PUBLIC "-//W3C//DTD SVG 20010904//EN"
 "http://www.w3.org/TR/2001/REC-SVG-20010904/DTD/svg10.dtd">
<svg version="1.0" xmlns="http://www.w3.org/2000/svg"
 width="700.000000pt" height="700.000000pt" viewBox="0 0 700.000000 700.000000"
 preserveAspectRatio="xMidYMid meet">
<metadata>
Created by potrace 1.14, written by Peter Selinger 2001-2017
</metadata>
<g transform="translate(0.000000,700.000000) scale(0.100000,-0.100000)"
fill="#000000" stroke="none">
<path d="M1789 5256 l-1665 -1664 -62 -13 c-48 -10 -61 -17 -58 -29 3 -8 8
-36 12 -62 l6 -47 42 5 41 5 1675 -1676 1674 -1676 1677 1677 1676 1676 38 -4
39 -3 12 60 c7 33 12 60 11 61 -1 0 -29 6 -62 13 l-60 13 -1666 1664 -1665
1665 -1665 -1665z"/>
</g>
</svg>
